<svg width="28" height="28" viewBox="0 0 28 28" fill="none" xmlns="http://www.w3.org/2000/svg">
<path d="M13.9125 0.489746C11.2899 0.489746 8.72617 1.26744 6.54555 2.72448C4.36493 4.18152 2.66535 6.25247 1.66172 8.67545C0.658089 11.0984 0.395494 13.7646 0.90714 16.3368C1.41878 18.909 2.68169 21.2717 4.53615 23.1262C6.39062 24.9807 8.75335 26.2436 11.3256 26.7552C13.8978 27.2669 16.5639 27.0043 18.9869 26.0006C21.4099 24.997 23.4808 23.2974 24.9379 21.1168C26.3949 18.9362 27.1726 16.3725 27.1726 13.7499C27.1726 12.0085 26.8296 10.2842 26.1633 8.67545C25.4969 7.06665 24.5201 5.60487 23.2888 4.37355C22.0575 3.14223 20.5957 2.1655 18.9869 1.49911C17.3781 0.83273 15.6538 0.489746 13.9125 0.489746ZM20.158 10.7133L12.2019 18.6694C12.0787 18.7937 11.932 18.8923 11.7704 18.9596C11.6088 19.027 11.4355 19.0616 11.2605 19.0616C11.0854 19.0616 10.9121 19.027 10.7505 18.9596C10.5889 18.8923 10.4423 18.7937 10.319 18.6694L7.66696 16.0174C7.54332 15.8937 7.44525 15.747 7.37834 15.5854C7.31143 15.4239 7.27699 15.2507 7.27699 15.0759C7.27699 14.901 7.31143 14.7279 7.37834 14.5664C7.44525 14.4048 7.54332 14.2581 7.66696 14.1344C7.7906 14.0108 7.93737 13.9127 8.09891 13.8458C8.26045 13.7789 8.43358 13.7445 8.60843 13.7445C8.78328 13.7445 8.95641 13.7789 9.11795 13.8458C9.27949 13.9127 9.42626 14.0108 9.5499 14.1344L11.2605 15.8582L18.2751 8.83037C18.5248 8.58068 18.8634 8.4404 19.2165 8.4404C19.5697 8.4404 19.9083 8.58068 20.158 8.83037C20.4077 9.08006 20.548 9.41872 20.548 9.77184C20.548 10.125 20.4077 10.4636 20.158 10.7133Z" fill="#0B1B35"/>
</svg>
